# xmcd CD database file
#
# Track frame offsets:
#	150
#	18080
#	29598
#	48799
#	70285
#	85031
#	102233
#	118721
#	137299
#	150854
#	172180
#	188828
#
# Disc length: 2752 seconds
#
# Revision: 0
# Processed by: cddbd v1.5.1PL2 Copyright (c) Steve Scherf et al.
# Submitted via: CDex 1.51
#
DISCID=8d0abe0c
DTITLE=Michael Buble - Its time
DYEAR=1900
DGENRE=Jazz
TTITLE0=1 - Feeling Good (Album Version)
TTITLE1=2 - A Foggy Day (In London Town) (Album Version)
TTITLE2=3 - You Dont Know Me (Album Version)
TTITLE3=4 - Quando, Quando, Quando (Album Version)
TTITLE4=6 - Cant Buy Me Love (Album Version)
TTITLE5=7 - The More I See You (Album Version)
TTITLE6=8 - Save The Last Dance For Me (Album Version)
TTITLE7=9 - Try A Little Tenderness (Album Version)
TTITLE8=10 - How Sweet It Is (Album Version)
TTITLE9=11 - Song For You (Album Version)
TTITLE10=12 - Ive Got You Under My Skin (Album Version)
TTITLE11=13 - You And I (Album Version)
EXTD=
EXTT0=
EXTT1=
EXTT2=
EXTT3=
EXTT4=
EXTT5=
EXTT6=
EXTT7=
EXTT8=
EXTT9=
EXTT10=
EXTT11=
PLAYORDER=
